<svg width="64" height="64" fill="none" xmlns="http://www.w3.org/2000/svg"><path d="M43.964 18.317l2.941-8.444L38.392 7l-2.22 6.37a16.762 16.762 0 00-9.345 0L24.608 7l-8.513 2.873 2.94 8.444C16.524 21.167 15 24.885 15 28.947v22.147C15 54.351 17.692 57 21 57h21c3.308 0 6-2.65 6-5.906V28.947c0-4.061-1.523-7.78-4.036-10.63zm-3.707-7.566l2.838.958-1.523 4.372a16.363 16.363 0 00-2.607-1.621l1.292-3.71zm-17.514 0l1.292 3.709c-.92.46-1.791 1-2.607 1.62l-1.523-4.371 2.838-.958zM45 51.094c0 1.628-1.346 2.953-3 2.953H21c-1.654 0-3-1.325-3-2.953V28.947c.744-17.632 26.263-17.619 27 0v22.147z" fill="#E84B29"/><path d="M34.5 31.9h3v-2.953h3v-2.953h-18v2.953h12V31.9z" fill="#E84B29"/></svg>