<svg width="64" height="64" fill="none" xmlns="http://www.w3.org/2000/svg"><path d="M49.975 50.184l-2.688-29.262a1.576 1.576 0 00-1.576-1.422h-4.737v-3.125a9.273 9.273 0 00-2.767-6.637C36.423 7.972 34.038 7 31.499 7c-5.224 0-9.475 4.206-9.475 9.375V19.5h-4.738c-.818 0-1.5.616-1.572 1.422l-2.688 29.262a6.223 6.223 0 001.627 4.782A6.358 6.358 0 0019.316 57h24.367c1.771 0 3.47-.74 4.664-2.034a6.234 6.234 0 001.627-4.782zM25.182 16.375c0-3.447 2.833-6.25 6.317-6.25 1.696 0 3.284.647 4.475 1.822a6.173 6.173 0 011.841 4.428V19.5H25.182v-3.125zm20.832 36.484a3.15 3.15 0 01-2.334 1.016H19.317a3.135 3.135 0 01-2.33-1.019 3.062 3.062 0 01-.812-2.39l2.555-27.841h3.294v4.688c0 .862.707 1.562 1.58 1.562.87 0 1.578-.7 1.578-1.563v-4.687h12.633v4.688c0 .862.708 1.562 1.58 1.562.871 0 1.579-.7 1.579-1.563v-4.687h3.294l2.558 27.844a3.065 3.065 0 01-.812 2.39z" fill="#8884BE"/></svg>