<svg width="64" height="64" fill="none" xmlns="http://www.w3.org/2000/svg"><path d="M10.12 52.893c.108.545.514.981 1.049 1.126.447.122 11.067 2.981 20.828 2.981s20.38-2.859 20.828-2.98a1.463 1.463 0 001.05-1.127c.047-.925 3.786-12.77-2.635-26.454 1.463-2.18 1.235-5.169-.685-7.094a1.458 1.458 0 00-1.033-.43h-2.316l-9.19-9.413a8.49 8.49 0 00-12.038 0l-9.19 9.414h-2.316c-.387 0-.759.154-1.032.429-1.92 1.925-2.149 4.915-.686 7.094-6.407 13.653-2.682 25.532-2.635 26.454zm17.924-41.319a5.576 5.576 0 017.906 0l7.125 7.342H20.92l7.125-7.342zM15.157 21.845h33.68a2.694 2.694 0 010 2.93h-33.68a2.694 2.694 0 010-2.93zm.232 5.86h33.217c5.746 12.283 2.607 23.198 2.585 23.71-2.727.675-11.388 2.656-19.194 2.656-7.807 0-16.468-1.981-19.194-2.657-.023-.531-3.172-11.404 2.585-23.71z" fill="#6FB63C"/></svg>